<?xml version="1.0" standalone="no"?>
<!DOCTYPE svg PUBLIC "-//W3C//DTD SVG 20010904//EN"
 "http://www.w3.org/TR/2001/REC-SVG-20010904/DTD/svg10.dtd">
<svg version="1.0" xmlns="http://www.w3.org/2000/svg"
 width="300.000000pt" height="300.000000pt" viewBox="0 0 300.000000 300.000000"
 preserveAspectRatio="xMidYMid meet">
<metadata>
Created by potrace 1.10, written by Peter Selinger 2001-2011
</metadata>
<g transform="translate(0.000000,300.000000) scale(0.100000,-0.100000)"
fill="#000000" stroke="none">
<path d="M1412 1760 c2 -72 1 -130 0 -130 -2 0 -15 9 -29 20 -37 29 -119 27
-163 -2 -43 -30 -73 -71 -68 -94 3 -17 7 -15 32 13 31 35 82 63 115 63 30 0
26 -13 -9 -28 -36 -16 -70 -69 -70 -108 0 -40 33 -90 72 -111 26 -13 29 -18
15 -21 -32 -7 -62 7 -110 49 -42 36 -47 38 -47 19 0 -11 18 -40 39 -63 39 -42
40 -42 109 -42 61 0 74 3 98 25 26 24 27 24 22 3 -5 -20 -1 -22 53 -25 l59 -3
0 50 c0 63 -14 90 -28 54 -6 -13 -13 -32 -16 -41 -6 -21 -35 -23 -61 -4 -18
13 -18 14 3 41 29 36 30 103 2 138 -25 31 -25 39 0 62 16 15 20 33 22 114 3
82 6 96 21 99 15 3 17 -8 17 -122 0 -68 5 -137 11 -153 20 -52 29 -2 29 165
l0 162 -61 0 -61 0 4 -130z m-16 -212 c25 -27 23 -83 -4 -110 -47 -48 -132
-14 -132 52 0 43 10 61 42 75 37 15 71 9 94 -17z"/>
<path d="M184 1651 c-58 -35 -79 -77 -79 -158 0 -80 15 -110 75 -150 48 -34
128 -32 169 3 l31 26 0 -24 c0 -21 4 -23 55 -23 l55 0 1 65 c1 64 1 64 14 34
19 -43 78 -92 120 -100 46 -8 133 0 147 14 8 8 6 21 -7 46 -18 33 -21 35 -60
30 -35 -5 -44 -2 -68 21 -36 37 -36 83 0 120 24 23 33 26 68 21 39 -5 42 -3
60 30 13 25 15 38 7 46 -14 14 -101 22 -147 14 -42 -8 -101 -57 -120 -100 -13
-30 -13 -30 -14 34 l-1 65 -55 -3 c-39 -3 -55 -8 -55 -18 0 -10 -8 -9 -32 6
-43 26 -122 27 -164 1z m96 -31 c0 -5 -6 -10 -13 -10 -15 0 -59 -45 -76 -78
-25 -47 0 -99 74 -158 19 -15 18 -15 -19 -10 -70 9 -111 68 -104 148 7 68 53
116 116 117 12 1 22 -3 22 -9z m342 -29 c-69 -68 -65 -149 11 -203 15 -11 26
-22 24 -25 -10 -9 -77 27 -113 61 -21 20 -46 35 -54 34 -8 -2 -22 -22 -30 -46
-11 -32 -20 -42 -36 -42 -40 0 -48 24 -24 74 23 49 21 68 -12 123 -19 32 -19
32 1 42 38 21 56 13 71 -31 19 -55 40 -58 87 -12 34 33 84 63 107 64 4 0 -10
-18 -32 -39z m-263 -47 c25 -32 27 -62 5 -92 -46 -66 -144 -34 -144 47 0 10 9
30 21 45 16 20 29 26 59 26 30 0 43 -6 59 -26z"/>
<path d="M829 1647 c-104 -70 -104 -234 0 -304 50 -34 129 -32 170 3 l31 26 0
-24 c0 -21 4 -23 55 -23 l55 0 0 65 c-1 60 -2 64 -16 45 -8 -11 -17 -30 -21
-42 -6 -27 -44 -31 -63 -8 -10 12 -8 23 10 59 23 49 21 68 -12 123 -19 32 -19
32 1 42 32 18 58 13 64 -11 4 -13 13 -32 21 -43 14 -19 15 -15 16 45 l0 65
-55 -3 c-39 -3 -55 -8 -55 -18 0 -10 -8 -9 -32 6 -47 28 -125 27 -169 -3z
m101 -27 c0 -5 -6 -10 -13 -10 -22 0 -76 -64 -83 -97 -8 -43 20 -97 65 -125
32 -21 34 -23 14 -26 -37 -5 -94 28 -109 64 -31 73 -9 159 47 187 38 19 79 22
79 7z m79 -76 c27 -35 26 -66 -2 -100 -46 -53 -137 -20 -137 50 0 71 96 105
139 50z"/>
<path d="M1615 1647 c-39 -22 -94 -101 -81 -114 3 -4 21 8 39 25 38 37 52 40
44 12 -3 -10 1 -27 8 -37 11 -14 11 -21 -1 -37 -21 -31 -17 -52 17 -91 47 -54
9 -45 -52 12 -27 25 -52 43 -55 40 -11 -11 30 -79 64 -105 49 -37 150 -44 210
-13 23 12 48 30 54 41 19 29 25 25 24 -16 l-1 -35 58 -2 57 -2 0 115 c0 125 5
140 50 140 50 0 60 -25 60 -146 l0 -109 57 1 58 2 3 113 c1 62 8 119 14 126
15 19 62 16 81 -5 14 -15 17 -40 17 -128 l0 -109 60 0 60 0 0 103 c0 183 -32
242 -130 242 -41 0 -55 -5 -85 -31 -30 -26 -36 -28 -41 -15 -18 46 -131 62
-178 25 -21 -17 -26 -18 -26 -5 0 13 -12 16 -60 16 l-60 0 1 -32 c1 -18 4 -44
9 -58 7 -25 8 -24 24 13 16 37 37 46 65 28 12 -8 12 -13 -2 -35 -12 -18 -17
-47 -17 -103 0 -43 -4 -84 -9 -92 -16 -24 -31 -1 -31 48 0 59 -28 91 -81 91
-33 0 -34 1 -35 41 l-1 40 31 -30 c18 -17 35 -31 38 -31 11 0 -11 62 -29 83
-46 51 -159 63 -228 24z m544 -38 l37 -20 -4 -92 c-7 -153 -42 -173 -42 -25 0
72 -2 80 -30 111 -16 19 -30 37 -30 41 0 12 33 5 69 -15z m226 7 l35 -15 0
-96 c0 -98 -13 -151 -31 -124 -5 8 -9 49 -9 93 0 75 -1 79 -34 112 -46 46 -30
58 39 30z m-625 -36 c33 -33 24 -40 -45 -40 -71 0 -85 15 -43 44 31 22 64 20
88 -4z m120 -135 c0 -40 0 -40 -42 -19 -29 15 -34 15 -59 0 -43 -25 -94 -21
-118 10 -12 15 -21 31 -21 35 0 5 54 9 120 9 l120 0 0 -35z"/>
<path d="M2784 1663 l-62 -4 -39 -86 -40 -87 -44 85 -45 84 -68 3 -68 3 21
-30 c12 -16 21 -33 21 -38 0 -4 26 -55 58 -112 l59 -103 -59 -110 c-32 -61
-58 -112 -58 -113 0 -2 30 -2 66 -1 l65 2 43 80 c45 83 219 413 224 427 2 4 0
6 -5 5 -4 -1 -36 -3 -69 -5z m-252 -60 c8 -10 27 -39 41 -65 15 -26 37 -54 49
-62 20 -15 24 -14 46 7 13 12 37 48 53 80 17 32 36 57 45 57 8 0 14 -6 12 -14
-7 -31 -204 -399 -216 -403 -27 -11 -24 9 11 85 21 43 37 83 37 90 0 18 -52
119 -94 181 -20 29 -36 55 -36 57 0 12 39 2 52 -13z"/>
<path d="M2848 1440 c-24 -25 -29 -36 -23 -58 15 -59 73 -81 123 -46 33 23 31
86 -4 113 -36 29 -60 26 -96 -9z m72 -36 c11 -12 10 -18 -3 -32 -16 -15 -18
-15 -33 0 -19 18 -12 48 9 48 8 0 20 -7 27 -16z"/>
</g>
</svg>
